<?xml version="1.0" encoding="UTF-8"?>
<svg id="a" data-name="Layer 1" xmlns="http://www.w3.org/2000/svg" width="1024" height="1024" viewBox="0 0 1024 1024">
  <rect width="1024" height="1024" fill="#1c1c1c"/>
  <g>
    <g>
      <circle cx="254.3" cy="512.54" r="16" fill="#4dff5e"/>
      <circle cx="304.3" cy="477.54" r="16" fill="#4dff5e"/>
      <circle cx="354.3" cy="512.54" r="16" fill="#4dff5e"/>
      <circle cx="404.3" cy="547.54" r="16" fill="#4dff5e"/>
      <circle cx="454.3" cy="512.54" r="16" fill="#4dff5e"/>
    </g>
    <g>
      <g isolation="isolate">
        <path d="M96.02,433.46h69.3c11.15,0,20.24,1.61,27.28,4.84,7.04,3.23,12.46,7.26,16.28,12.1,3.81,4.84,6.41,10.12,7.81,15.84,1.39,5.72,2.09,11,2.09,15.84s-.7,10.09-2.09,15.73c-1.4,5.65-4,10.89-7.81,15.73-3.82,4.84-9.24,8.84-16.28,11.99-7.04,3.16-16.13,4.73-27.28,4.73h-41.8v60.28h-27.5v-157.08ZM123.52,507.82h40.26c3.08,0,6.23-.44,9.46-1.32,3.23-.88,6.19-2.31,8.91-4.29,2.71-1.98,4.91-4.62,6.6-7.92,1.68-3.3,2.53-7.44,2.53-12.43s-.74-9.39-2.2-12.76c-1.47-3.37-3.45-6.05-5.94-8.03-2.5-1.98-5.35-3.33-8.58-4.07-3.23-.73-6.68-1.1-10.34-1.1h-40.7v51.92h0Z" fill="#f5f5f5"/>
      </g>
      <g isolation="isolate">
        <path d="M506.02,433.46h108.46v23.76h-80.96v41.14h71.06v22.44h-71.06v69.74h-27.5v-157.08Z" fill="#f5f5f5"/>
        <path d="M640.44,433.46h27.5v71.5l69.96-71.5h33.88l-62.7,62.7,67.1,94.38h-34.32l-51.48-75.02-22.44,22.22v52.8h-27.5v-157.08h0Z" fill="#f5f5f5"/>
        <path d="M795.1,433.46h75.02c17.3,0,30.28,3.74,38.94,11.22,8.65,7.48,12.98,17.9,12.98,31.24,0,7.48-1.1,13.68-3.3,18.59-2.2,4.92-4.77,8.88-7.7,11.88-2.94,3.01-5.83,5.17-8.69,6.49-2.86,1.32-4.95,2.2-6.27,2.64v.44c2.34.3,4.87,1.03,7.59,2.2,2.71,1.18,5.24,3.05,7.59,5.61,2.34,2.57,4.29,5.91,5.83,10.01,1.54,4.11,2.31,9.24,2.31,15.4,0,9.24.7,17.64,2.09,25.19,1.39,7.56,3.55,12.95,6.49,16.17h-29.48c-2.06-3.37-3.27-7.11-3.63-11.22-.37-4.1-.55-8.06-.55-11.88,0-7.18-.44-13.38-1.32-18.59-.88-5.2-2.5-9.53-4.84-12.98-2.35-3.44-5.54-5.97-9.57-7.59-4.03-1.61-9.21-2.42-15.51-2.42h-40.48v64.68h-27.5v-157.08h0ZM822.6,504.96h45.1c8.8,0,15.47-2.09,20.02-6.27,4.54-4.18,6.82-10.45,6.82-18.81,0-4.98-.73-9.05-2.2-12.21-1.47-3.15-3.48-5.61-6.05-7.37-2.57-1.76-5.5-2.93-8.8-3.52-3.3-.58-6.71-.88-10.23-.88h-44.66v49.06h0Z" fill="#f5f5f5"/>
      </g>
    </g>
  </g>
</svg>